<mxfile host="app.diagrams.net" modified="2024-01-19T19:12:19.249Z" agent="Mozilla/5.0 (Windows NT 10.0; Win64; x64) AppleWebKit/537.36 (KHTML, like Gecko) Chrome/120.0.0.0 Safari/537.36" etag="YZDz9Sbpg_6n6Bo85LCb" version="22.1.21" type="github">
  <diagram id="C5RBs43oDa-KdzZeNtuy" name="Page-1">
    <mxGraphModel dx="1740" dy="1770" grid="1" gridSize="10" guides="1" tooltips="1" connect="1" arrows="1" fold="1" page="1" pageScale="1" pageWidth="827" pageHeight="1169" math="0" shadow="0">
      <root>
        <mxCell id="WIyWlLk6GJQsqaUBKTNV-0" />
        <mxCell id="WIyWlLk6GJQsqaUBKTNV-1" parent="WIyWlLk6GJQsqaUBKTNV-0" />
        <mxCell id="i3LlxhzEXIOrOoSJDD8H-0" value="IATourNormal" style="swimlane;fontStyle=0;childLayout=stackLayout;horizontal=1;startSize=26;fillColor=none;horizontalStack=0;resizeParent=1;resizeParentMax=0;resizeLast=0;collapsible=1;marginBottom=0;whiteSpace=wrap;html=1;" vertex="1" parent="WIyWlLk6GJQsqaUBKTNV-1">
          <mxGeometry x="230" width="170" height="78" as="geometry" />
        </mxCell>
        <mxCell id="i3LlxhzEXIOrOoSJDD8H-1" value="+ veutQuitter : boolean" style="text;strokeColor=none;fillColor=none;align=left;verticalAlign=top;spacingLeft=4;spacingRight=4;overflow=hidden;rotatable=0;points=[[0,0.5],[1,0.5]];portConstraint=eastwest;whiteSpace=wrap;html=1;" vertex="1" parent="i3LlxhzEXIOrOoSJDD8H-0">
          <mxGeometry y="26" width="170" height="26" as="geometry" />
        </mxCell>
        <mxCell id="i3LlxhzEXIOrOoSJDD8H-2" value="+ veutSauvegarder : boolean" style="text;strokeColor=none;fillColor=none;align=left;verticalAlign=top;spacingLeft=4;spacingRight=4;overflow=hidden;rotatable=0;points=[[0,0.5],[1,0.5]];portConstraint=eastwest;whiteSpace=wrap;html=1;" vertex="1" parent="i3LlxhzEXIOrOoSJDD8H-0">
          <mxGeometry y="52" width="170" height="26" as="geometry" />
        </mxCell>
        <mxCell id="i3LlxhzEXIOrOoSJDD8H-4" value="IATourNormalInfos" style="rounded=0;whiteSpace=wrap;html=1;" vertex="1" parent="WIyWlLk6GJQsqaUBKTNV-1">
          <mxGeometry x="255" y="-120" width="120" height="60" as="geometry" />
        </mxCell>
        <mxCell id="i3LlxhzEXIOrOoSJDD8H-5" value="" style="endArrow=block;endSize=10;endFill=0;shadow=0;strokeWidth=1;rounded=0;edgeStyle=elbowEdgeStyle;elbow=vertical;exitX=0.5;exitY=0;exitDx=0;exitDy=0;entryX=0.5;entryY=1;entryDx=0;entryDy=0;" edge="1" parent="WIyWlLk6GJQsqaUBKTNV-1" source="i3LlxhzEXIOrOoSJDD8H-0" target="i3LlxhzEXIOrOoSJDD8H-4">
          <mxGeometry width="160" relative="1" as="geometry">
            <mxPoint x="210" y="282" as="sourcePoint" />
            <mxPoint x="530" y="200" as="targetPoint" />
          </mxGeometry>
        </mxCell>
        <mxCell id="i3LlxhzEXIOrOoSJDD8H-6" value="CommandOnCore" style="swimlane;fontStyle=2;align=center;verticalAlign=top;childLayout=stackLayout;horizontal=1;startSize=26;horizontalStack=0;resizeParent=1;resizeLast=0;collapsible=1;marginBottom=0;rounded=0;shadow=0;strokeWidth=1;" vertex="1" parent="WIyWlLk6GJQsqaUBKTNV-1">
          <mxGeometry x="860" y="770" width="380" height="200" as="geometry">
            <mxRectangle x="860" y="770" width="160" height="26" as="alternateBounds" />
          </mxGeometry>
        </mxCell>
        <mxCell id="i3LlxhzEXIOrOoSJDD8H-7" value="- hasBeenExecuted : boolean" style="text;align=left;verticalAlign=top;spacingLeft=4;spacingRight=4;overflow=hidden;rotatable=0;points=[[0,0.5],[1,0.5]];portConstraint=eastwest;" vertex="1" parent="i3LlxhzEXIOrOoSJDD8H-6">
          <mxGeometry y="26" width="380" height="26" as="geometry" />
        </mxCell>
        <mxCell id="i3LlxhzEXIOrOoSJDD8H-10" value="- isValid : boolean" style="text;align=left;verticalAlign=top;spacingLeft=4;spacingRight=4;overflow=hidden;rotatable=0;points=[[0,0.5],[1,0.5]];portConstraint=eastwest;" vertex="1" parent="i3LlxhzEXIOrOoSJDD8H-6">
          <mxGeometry y="52" width="380" height="26" as="geometry" />
        </mxCell>
        <mxCell id="i3LlxhzEXIOrOoSJDD8H-11" value="- notificationString : String" style="text;align=left;verticalAlign=top;spacingLeft=4;spacingRight=4;overflow=hidden;rotatable=0;points=[[0,0.5],[1,0.5]];portConstraint=eastwest;" vertex="1" parent="i3LlxhzEXIOrOoSJDD8H-6">
          <mxGeometry y="78" width="380" height="26" as="geometry" />
        </mxCell>
        <mxCell id="i3LlxhzEXIOrOoSJDD8H-9" value="" style="line;html=1;strokeWidth=1;align=left;verticalAlign=middle;spacingTop=-1;spacingLeft=3;spacingRight=3;rotatable=0;labelPosition=right;points=[];portConstraint=eastwest;" vertex="1" parent="i3LlxhzEXIOrOoSJDD8H-6">
          <mxGeometry y="104" width="380" height="8" as="geometry" />
        </mxCell>
        <mxCell id="i3LlxhzEXIOrOoSJDD8H-8" value="# unitCardTransfer(Deck start, Deck end, Card card) : void (final)" style="text;align=left;verticalAlign=top;spacingLeft=4;spacingRight=4;overflow=hidden;rotatable=0;points=[[0,0.5],[1,0.5]];portConstraint=eastwest;rounded=0;shadow=0;html=0;" vertex="1" parent="i3LlxhzEXIOrOoSJDD8H-6">
          <mxGeometry y="112" width="380" height="26" as="geometry" />
        </mxCell>
        <mxCell id="i3LlxhzEXIOrOoSJDD8H-13" value="+ execute() : void (final)" style="text;align=left;verticalAlign=top;spacingLeft=4;spacingRight=4;overflow=hidden;rotatable=0;points=[[0,0.5],[1,0.5]];portConstraint=eastwest;rounded=0;shadow=0;html=0;" vertex="1" parent="i3LlxhzEXIOrOoSJDD8H-6">
          <mxGeometry y="138" width="380" height="26" as="geometry" />
        </mxCell>
        <mxCell id="i3LlxhzEXIOrOoSJDD8H-14" value="# execute_() : void" style="text;align=left;verticalAlign=top;spacingLeft=4;spacingRight=4;overflow=hidden;rotatable=0;points=[[0,0.5],[1,0.5]];portConstraint=eastwest;rounded=0;shadow=0;html=0;fontStyle=2" vertex="1" parent="i3LlxhzEXIOrOoSJDD8H-6">
          <mxGeometry y="164" width="380" height="26" as="geometry" />
        </mxCell>
        <mxCell id="i3LlxhzEXIOrOoSJDD8H-15" value="CardTransfer" style="swimlane;fontStyle=1;align=center;verticalAlign=top;childLayout=stackLayout;horizontal=1;startSize=26;horizontalStack=0;resizeParent=1;resizeParentMax=0;resizeLast=0;collapsible=1;marginBottom=0;whiteSpace=wrap;html=1;" vertex="1" parent="WIyWlLk6GJQsqaUBKTNV-1">
          <mxGeometry x="760" y="1040" width="160" height="112" as="geometry" />
        </mxCell>
        <mxCell id="i3LlxhzEXIOrOoSJDD8H-19" value="- startDeck : Deck" style="text;strokeColor=none;fillColor=none;align=left;verticalAlign=top;spacingLeft=4;spacingRight=4;overflow=hidden;rotatable=0;points=[[0,0.5],[1,0.5]];portConstraint=eastwest;whiteSpace=wrap;html=1;" vertex="1" parent="i3LlxhzEXIOrOoSJDD8H-15">
          <mxGeometry y="26" width="160" height="26" as="geometry" />
        </mxCell>
        <mxCell id="i3LlxhzEXIOrOoSJDD8H-20" value="- endDeck : Deck" style="text;strokeColor=none;fillColor=none;align=left;verticalAlign=top;spacingLeft=4;spacingRight=4;overflow=hidden;rotatable=0;points=[[0,0.5],[1,0.5]];portConstraint=eastwest;whiteSpace=wrap;html=1;" vertex="1" parent="i3LlxhzEXIOrOoSJDD8H-15">
          <mxGeometry y="52" width="160" height="26" as="geometry" />
        </mxCell>
        <mxCell id="i3LlxhzEXIOrOoSJDD8H-21" value="- card : Card" style="text;strokeColor=none;fillColor=none;align=left;verticalAlign=top;spacingLeft=4;spacingRight=4;overflow=hidden;rotatable=0;points=[[0,0.5],[1,0.5]];portConstraint=eastwest;whiteSpace=wrap;html=1;" vertex="1" parent="i3LlxhzEXIOrOoSJDD8H-15">
          <mxGeometry y="78" width="160" height="26" as="geometry" />
        </mxCell>
        <mxCell id="i3LlxhzEXIOrOoSJDD8H-16" value="" style="line;strokeWidth=1;fillColor=none;align=left;verticalAlign=middle;spacingTop=-1;spacingLeft=3;spacingRight=3;rotatable=0;labelPosition=right;points=[];portConstraint=eastwest;strokeColor=inherit;" vertex="1" parent="i3LlxhzEXIOrOoSJDD8H-15">
          <mxGeometry y="104" width="160" height="8" as="geometry" />
        </mxCell>
        <mxCell id="i3LlxhzEXIOrOoSJDD8H-22" value="DefausserOeuvres" style="swimlane;fontStyle=1;align=center;verticalAlign=top;childLayout=stackLayout;horizontal=1;startSize=26;horizontalStack=0;resizeParent=1;resizeParentMax=0;resizeLast=0;collapsible=1;marginBottom=0;whiteSpace=wrap;html=1;" vertex="1" parent="WIyWlLk6GJQsqaUBKTNV-1">
          <mxGeometry x="960" y="1040" width="160" height="60" as="geometry" />
        </mxCell>
        <mxCell id="i3LlxhzEXIOrOoSJDD8H-23" value="- player : Player" style="text;strokeColor=none;fillColor=none;align=left;verticalAlign=top;spacingLeft=4;spacingRight=4;overflow=hidden;rotatable=0;points=[[0,0.5],[1,0.5]];portConstraint=eastwest;whiteSpace=wrap;html=1;" vertex="1" parent="i3LlxhzEXIOrOoSJDD8H-22">
          <mxGeometry y="26" width="160" height="26" as="geometry" />
        </mxCell>
        <mxCell id="i3LlxhzEXIOrOoSJDD8H-26" value="" style="line;strokeWidth=1;fillColor=none;align=left;verticalAlign=middle;spacingTop=-1;spacingLeft=3;spacingRight=3;rotatable=0;labelPosition=right;points=[];portConstraint=eastwest;strokeColor=inherit;" vertex="1" parent="i3LlxhzEXIOrOoSJDD8H-22">
          <mxGeometry y="52" width="160" height="8" as="geometry" />
        </mxCell>
        <mxCell id="i3LlxhzEXIOrOoSJDD8H-27" value="PuiserSource" style="swimlane;fontStyle=1;align=center;verticalAlign=top;childLayout=stackLayout;horizontal=1;startSize=26;horizontalStack=0;resizeParent=1;resizeParentMax=0;resizeLast=0;collapsible=1;marginBottom=0;whiteSpace=wrap;html=1;" vertex="1" parent="WIyWlLk6GJQsqaUBKTNV-1">
          <mxGeometry x="1161" y="1040" width="160" height="60" as="geometry" />
        </mxCell>
        <mxCell id="i3LlxhzEXIOrOoSJDD8H-28" value="- destination : Deck" style="text;strokeColor=none;fillColor=none;align=left;verticalAlign=top;spacingLeft=4;spacingRight=4;overflow=hidden;rotatable=0;points=[[0,0.5],[1,0.5]];portConstraint=eastwest;whiteSpace=wrap;html=1;" vertex="1" parent="i3LlxhzEXIOrOoSJDD8H-27">
          <mxGeometry y="26" width="160" height="26" as="geometry" />
        </mxCell>
        <mxCell id="i3LlxhzEXIOrOoSJDD8H-31" value="" style="line;strokeWidth=1;fillColor=none;align=left;verticalAlign=middle;spacingTop=-1;spacingLeft=3;spacingRight=3;rotatable=0;labelPosition=right;points=[];portConstraint=eastwest;strokeColor=inherit;" vertex="1" parent="i3LlxhzEXIOrOoSJDD8H-27">
          <mxGeometry y="52" width="160" height="8" as="geometry" />
        </mxCell>
        <mxCell id="i3LlxhzEXIOrOoSJDD8H-32" value="ShuffleDeck" style="swimlane;fontStyle=1;align=center;verticalAlign=top;childLayout=stackLayout;horizontal=1;startSize=26;horizontalStack=0;resizeParent=1;resizeParentMax=0;resizeLast=0;collapsible=1;marginBottom=0;whiteSpace=wrap;html=1;" vertex="1" parent="WIyWlLk6GJQsqaUBKTNV-1">
          <mxGeometry x="1360" y="1040" width="160" height="60" as="geometry" />
        </mxCell>
        <mxCell id="i3LlxhzEXIOrOoSJDD8H-33" value="- deck : Deck" style="text;strokeColor=none;fillColor=none;align=left;verticalAlign=top;spacingLeft=4;spacingRight=4;overflow=hidden;rotatable=0;points=[[0,0.5],[1,0.5]];portConstraint=eastwest;whiteSpace=wrap;html=1;" vertex="1" parent="i3LlxhzEXIOrOoSJDD8H-32">
          <mxGeometry y="26" width="160" height="26" as="geometry" />
        </mxCell>
        <mxCell id="i3LlxhzEXIOrOoSJDD8H-34" value="" style="line;strokeWidth=1;fillColor=none;align=left;verticalAlign=middle;spacingTop=-1;spacingLeft=3;spacingRight=3;rotatable=0;labelPosition=right;points=[];portConstraint=eastwest;strokeColor=inherit;" vertex="1" parent="i3LlxhzEXIOrOoSJDD8H-32">
          <mxGeometry y="52" width="160" height="8" as="geometry" />
        </mxCell>
        <mxCell id="i3LlxhzEXIOrOoSJDD8H-35" value="" style="endArrow=block;endSize=10;endFill=0;shadow=0;strokeWidth=1;rounded=0;edgeStyle=elbowEdgeStyle;elbow=vertical;exitX=0.5;exitY=0;exitDx=0;exitDy=0;entryX=0.5;entryY=1;entryDx=0;entryDy=0;" edge="1" parent="WIyWlLk6GJQsqaUBKTNV-1" source="i3LlxhzEXIOrOoSJDD8H-15" target="i3LlxhzEXIOrOoSJDD8H-6">
          <mxGeometry width="160" relative="1" as="geometry">
            <mxPoint x="770" y="920" as="sourcePoint" />
            <mxPoint x="930" y="830" as="targetPoint" />
            <Array as="points">
              <mxPoint x="860" y="1000" />
            </Array>
          </mxGeometry>
        </mxCell>
        <mxCell id="i3LlxhzEXIOrOoSJDD8H-37" value="" style="endArrow=block;endSize=10;endFill=0;shadow=0;strokeWidth=1;rounded=0;edgeStyle=elbowEdgeStyle;elbow=vertical;exitX=0.5;exitY=0;exitDx=0;exitDy=0;entryX=0.5;entryY=1;entryDx=0;entryDy=0;" edge="1" parent="WIyWlLk6GJQsqaUBKTNV-1" source="i3LlxhzEXIOrOoSJDD8H-22" target="i3LlxhzEXIOrOoSJDD8H-6">
          <mxGeometry width="160" relative="1" as="geometry">
            <mxPoint x="850" y="1050" as="sourcePoint" />
            <mxPoint x="980" y="860" as="targetPoint" />
            <Array as="points">
              <mxPoint x="1020" y="1000" />
            </Array>
          </mxGeometry>
        </mxCell>
        <mxCell id="i3LlxhzEXIOrOoSJDD8H-38" value="" style="endArrow=block;endSize=10;endFill=0;shadow=0;strokeWidth=1;rounded=0;edgeStyle=elbowEdgeStyle;elbow=vertical;exitX=0.5;exitY=0;exitDx=0;exitDy=0;entryX=0.5;entryY=1;entryDx=0;entryDy=0;" edge="1" parent="WIyWlLk6GJQsqaUBKTNV-1" source="i3LlxhzEXIOrOoSJDD8H-32" target="i3LlxhzEXIOrOoSJDD8H-6">
          <mxGeometry width="160" relative="1" as="geometry">
            <mxPoint x="860" y="1060" as="sourcePoint" />
            <mxPoint x="960" y="890" as="targetPoint" />
            <Array as="points">
              <mxPoint x="1220" y="1000" />
            </Array>
          </mxGeometry>
        </mxCell>
        <mxCell id="i3LlxhzEXIOrOoSJDD8H-39" value="" style="endArrow=block;endSize=10;endFill=0;shadow=0;strokeWidth=1;rounded=0;edgeStyle=elbowEdgeStyle;elbow=vertical;exitX=0.5;exitY=0;exitDx=0;exitDy=0;entryX=0.5;entryY=1;entryDx=0;entryDy=0;" edge="1" parent="WIyWlLk6GJQsqaUBKTNV-1" source="i3LlxhzEXIOrOoSJDD8H-27" target="i3LlxhzEXIOrOoSJDD8H-6">
          <mxGeometry width="160" relative="1" as="geometry">
            <mxPoint x="870" y="1070" as="sourcePoint" />
            <mxPoint x="960" y="810" as="targetPoint" />
            <Array as="points">
              <mxPoint x="1120" y="1000" />
            </Array>
          </mxGeometry>
        </mxCell>
        <mxCell id="i3LlxhzEXIOrOoSJDD8H-41" value="(template pattern)" style="text;html=1;align=center;verticalAlign=middle;resizable=0;points=[];autosize=1;strokeColor=none;fillColor=none;" vertex="1" parent="WIyWlLk6GJQsqaUBKTNV-1">
          <mxGeometry x="1050" y="970" width="120" height="30" as="geometry" />
        </mxCell>
        <mxCell id="i3LlxhzEXIOrOoSJDD8H-42" value="CardTransferHistorySystem" style="swimlane;fontStyle=0;align=center;verticalAlign=top;childLayout=stackLayout;horizontal=1;startSize=26;horizontalStack=0;resizeParent=1;resizeLast=0;collapsible=1;marginBottom=0;rounded=0;shadow=0;strokeWidth=1;" vertex="1" parent="WIyWlLk6GJQsqaUBKTNV-1">
          <mxGeometry x="360" y="900" width="270" height="170" as="geometry">
            <mxRectangle x="130" y="380" width="160" height="26" as="alternateBounds" />
          </mxGeometry>
        </mxCell>
        <mxCell id="i3LlxhzEXIOrOoSJDD8H-43" value="- cardTransferHistory : Queue&lt;String&gt;" style="text;align=left;verticalAlign=top;spacingLeft=4;spacingRight=4;overflow=hidden;rotatable=0;points=[[0,0.5],[1,0.5]];portConstraint=eastwest;fontStyle=4" vertex="1" parent="i3LlxhzEXIOrOoSJDD8H-42">
          <mxGeometry y="26" width="270" height="26" as="geometry" />
        </mxCell>
        <mxCell id="i3LlxhzEXIOrOoSJDD8H-47" value="" style="line;html=1;strokeWidth=1;align=left;verticalAlign=middle;spacingTop=-1;spacingLeft=3;spacingRight=3;rotatable=0;labelPosition=right;points=[];portConstraint=eastwest;" vertex="1" parent="i3LlxhzEXIOrOoSJDD8H-42">
          <mxGeometry y="52" width="270" height="8" as="geometry" />
        </mxCell>
        <mxCell id="i3LlxhzEXIOrOoSJDD8H-52" value="+ add(Deck start, Deck end, Card card) : void" style="text;align=left;verticalAlign=top;spacingLeft=4;spacingRight=4;overflow=hidden;rotatable=0;points=[[0,0.5],[1,0.5]];portConstraint=eastwest;fontStyle=4" vertex="1" parent="i3LlxhzEXIOrOoSJDD8H-42">
          <mxGeometry y="60" width="270" height="26" as="geometry" />
        </mxCell>
        <mxCell id="i3LlxhzEXIOrOoSJDD8H-53" value="+ save(String fileName) : void" style="text;align=left;verticalAlign=top;spacingLeft=4;spacingRight=4;overflow=hidden;rotatable=0;points=[[0,0.5],[1,0.5]];portConstraint=eastwest;fontStyle=4" vertex="1" parent="i3LlxhzEXIOrOoSJDD8H-42">
          <mxGeometry y="86" width="270" height="26" as="geometry" />
        </mxCell>
        <mxCell id="i3LlxhzEXIOrOoSJDD8H-55" value="----------------------------------------------------------------" style="text;align=left;verticalAlign=top;spacingLeft=4;spacingRight=4;overflow=hidden;rotatable=0;points=[[0,0.5],[1,0.5]];portConstraint=eastwest;fontStyle=0" vertex="1" parent="i3LlxhzEXIOrOoSJDD8H-42">
          <mxGeometry y="112" width="270" height="26" as="geometry" />
        </mxCell>
        <mxCell id="i3LlxhzEXIOrOoSJDD8H-54" value="+ readAndExecuteHistory(String fileName) : void" style="text;align=left;verticalAlign=top;spacingLeft=4;spacingRight=4;overflow=hidden;rotatable=0;points=[[0,0.5],[1,0.5]];portConstraint=eastwest;fontStyle=4" vertex="1" parent="i3LlxhzEXIOrOoSJDD8H-42">
          <mxGeometry y="138" width="270" height="26" as="geometry" />
        </mxCell>
        <mxCell id="i3LlxhzEXIOrOoSJDD8H-60" value="Execute" style="endArrow=open;endSize=12;dashed=1;html=1;rounded=0;exitX=0.996;exitY=0.088;exitDx=0;exitDy=0;entryX=0;entryY=0;entryDx=0;entryDy=0;exitPerimeter=0;" edge="1" parent="WIyWlLk6GJQsqaUBKTNV-1" source="i3LlxhzEXIOrOoSJDD8H-54" target="i3LlxhzEXIOrOoSJDD8H-15">
          <mxGeometry width="160" relative="1" as="geometry">
            <mxPoint x="680" y="1000" as="sourcePoint" />
            <mxPoint x="840" y="1000" as="targetPoint" />
          </mxGeometry>
        </mxCell>
        <mxCell id="i3LlxhzEXIOrOoSJDD8H-61" value="Add entry" style="endArrow=open;endSize=12;dashed=1;html=1;rounded=0;entryX=1;entryY=0.5;entryDx=0;entryDy=0;exitX=0;exitY=0.5;exitDx=0;exitDy=0;" edge="1" parent="WIyWlLk6GJQsqaUBKTNV-1" source="i3LlxhzEXIOrOoSJDD8H-8">
          <mxGeometry x="-0.045" y="-1" width="160" relative="1" as="geometry">
            <mxPoint x="780" y="920" as="sourcePoint" />
            <mxPoint x="630" y="969.4099999999997" as="targetPoint" />
            <mxPoint as="offset" />
          </mxGeometry>
        </mxCell>
        <mxCell id="i3LlxhzEXIOrOoSJDD8H-63" value="GameController (Singleton)&#xa;" style="swimlane;fontStyle=0;align=center;verticalAlign=top;childLayout=stackLayout;horizontal=1;startSize=26;horizontalStack=0;resizeParent=1;resizeLast=0;collapsible=1;marginBottom=0;rounded=0;shadow=0;strokeWidth=1;" vertex="1" parent="WIyWlLk6GJQsqaUBKTNV-1">
          <mxGeometry x="770" width="420" height="530" as="geometry">
            <mxRectangle x="860" y="770" width="160" height="26" as="alternateBounds" />
          </mxGeometry>
        </mxCell>
        <mxCell id="i3LlxhzEXIOrOoSJDD8H-64" value="- choix : String" style="text;align=left;verticalAlign=top;spacingLeft=4;spacingRight=4;overflow=hidden;rotatable=0;points=[[0,0.5],[1,0.5]];portConstraint=eastwest;" vertex="1" parent="i3LlxhzEXIOrOoSJDD8H-63">
          <mxGeometry y="26" width="420" height="26" as="geometry" />
        </mxCell>
        <mxCell id="i3LlxhzEXIOrOoSJDD8H-65" value="- isChoixFinal : boolean" style="text;align=left;verticalAlign=top;spacingLeft=4;spacingRight=4;overflow=hidden;rotatable=0;points=[[0,0.5],[1,0.5]];portConstraint=eastwest;" vertex="1" parent="i3LlxhzEXIOrOoSJDD8H-63">
          <mxGeometry y="52" width="420" height="26" as="geometry" />
        </mxCell>
        <mxCell id="i3LlxhzEXIOrOoSJDD8H-66" value="- choixHistory : List&lt;String&gt;" style="text;align=left;verticalAlign=top;spacingLeft=4;spacingRight=4;overflow=hidden;rotatable=0;points=[[0,0.5],[1,0.5]];portConstraint=eastwest;" vertex="1" parent="i3LlxhzEXIOrOoSJDD8H-63">
          <mxGeometry y="78" width="420" height="26" as="geometry" />
        </mxCell>
        <mxCell id="i3LlxhzEXIOrOoSJDD8H-71" value="- activePlayer : Player" style="text;align=left;verticalAlign=top;spacingLeft=4;spacingRight=4;overflow=hidden;rotatable=0;points=[[0,0.5],[1,0.5]];portConstraint=eastwest;" vertex="1" parent="i3LlxhzEXIOrOoSJDD8H-63">
          <mxGeometry y="104" width="420" height="26" as="geometry" />
        </mxCell>
        <mxCell id="i3LlxhzEXIOrOoSJDD8H-72" value="- playerViewsMap : Map&lt;Player, Set&lt;View&gt;&gt; " style="text;align=left;verticalAlign=top;spacingLeft=4;spacingRight=4;overflow=hidden;rotatable=0;points=[[0,0.5],[1,0.5]];portConstraint=eastwest;" vertex="1" parent="i3LlxhzEXIOrOoSJDD8H-63">
          <mxGeometry y="130" width="420" height="26" as="geometry" />
        </mxCell>
        <mxCell id="i3LlxhzEXIOrOoSJDD8H-67" value="" style="line;html=1;strokeWidth=1;align=left;verticalAlign=middle;spacingTop=-1;spacingLeft=3;spacingRight=3;rotatable=0;labelPosition=right;points=[];portConstraint=eastwest;" vertex="1" parent="i3LlxhzEXIOrOoSJDD8H-63">
          <mxGeometry y="156" width="420" height="8" as="geometry" />
        </mxCell>
        <mxCell id="i3LlxhzEXIOrOoSJDD8H-68" value="+ init() : void" style="text;align=left;verticalAlign=top;spacingLeft=4;spacingRight=4;overflow=hidden;rotatable=0;points=[[0,0.5],[1,0.5]];portConstraint=eastwest;rounded=0;shadow=0;html=0;" vertex="1" parent="i3LlxhzEXIOrOoSJDD8H-63">
          <mxGeometry y="164" width="420" height="26" as="geometry" />
        </mxCell>
        <mxCell id="i3LlxhzEXIOrOoSJDD8H-78" value="+ close() : void" style="text;align=left;verticalAlign=top;spacingLeft=4;spacingRight=4;overflow=hidden;rotatable=0;points=[[0,0.5],[1,0.5]];portConstraint=eastwest;rounded=0;shadow=0;html=0;" vertex="1" parent="i3LlxhzEXIOrOoSJDD8H-63">
          <mxGeometry y="190" width="420" height="26" as="geometry" />
        </mxCell>
        <mxCell id="i3LlxhzEXIOrOoSJDD8H-84" value="------------------------------------------------------------------------------------------" style="text;align=center;verticalAlign=top;spacingLeft=4;spacingRight=4;overflow=hidden;rotatable=0;points=[[0,0.5],[1,0.5]];portConstraint=eastwest;rounded=0;shadow=0;html=0;" vertex="1" parent="i3LlxhzEXIOrOoSJDD8H-63">
          <mxGeometry y="216" width="420" height="26" as="geometry" />
        </mxCell>
        <mxCell id="i3LlxhzEXIOrOoSJDD8H-81" value="+ setChoix(String choix) : void" style="text;align=left;verticalAlign=top;spacingLeft=4;spacingRight=4;overflow=hidden;rotatable=0;points=[[0,0.5],[1,0.5]];portConstraint=eastwest;rounded=0;shadow=0;html=0;" vertex="1" parent="i3LlxhzEXIOrOoSJDD8H-63">
          <mxGeometry y="242" width="420" height="26" as="geometry" />
        </mxCell>
        <mxCell id="i3LlxhzEXIOrOoSJDD8H-83" value="+ setChoixFinal(String choix) : void" style="text;align=left;verticalAlign=top;spacingLeft=4;spacingRight=4;overflow=hidden;rotatable=0;points=[[0,0.5],[1,0.5]];portConstraint=eastwest;rounded=0;shadow=0;html=0;" vertex="1" parent="i3LlxhzEXIOrOoSJDD8H-63">
          <mxGeometry y="268" width="420" height="26" as="geometry" />
        </mxCell>
        <mxCell id="i3LlxhzEXIOrOoSJDD8H-82" value="- waitChoixFinal() : String" style="text;align=left;verticalAlign=top;spacingLeft=4;spacingRight=4;overflow=hidden;rotatable=0;points=[[0,0.5],[1,0.5]];portConstraint=eastwest;rounded=0;shadow=0;html=0;" vertex="1" parent="i3LlxhzEXIOrOoSJDD8H-63">
          <mxGeometry y="294" width="420" height="26" as="geometry" />
        </mxCell>
        <mxCell id="i3LlxhzEXIOrOoSJDD8H-86" value="------------------------------------------------------------------------------------------" style="text;align=center;verticalAlign=top;spacingLeft=4;spacingRight=4;overflow=hidden;rotatable=0;points=[[0,0.5],[1,0.5]];portConstraint=eastwest;rounded=0;shadow=0;html=0;" vertex="1" parent="i3LlxhzEXIOrOoSJDD8H-63">
          <mxGeometry y="320" width="420" height="26" as="geometry" />
        </mxCell>
        <mxCell id="i3LlxhzEXIOrOoSJDD8H-85" value="+ presentMainMenu() : TourNormalInfos" style="text;align=left;verticalAlign=top;spacingLeft=4;spacingRight=4;overflow=hidden;rotatable=0;points=[[0,0.5],[1,0.5]];portConstraint=eastwest;rounded=0;shadow=0;html=0;" vertex="1" parent="i3LlxhzEXIOrOoSJDD8H-63">
          <mxGeometry y="346" width="420" height="26" as="geometry" />
        </mxCell>
        <mxCell id="i3LlxhzEXIOrOoSJDD8H-89" value="+ presentMenuChoixSimple(String title, String[] choixPossibles) : String" style="text;align=left;verticalAlign=top;spacingLeft=4;spacingRight=4;overflow=hidden;rotatable=0;points=[[0,0.5],[1,0.5]];portConstraint=eastwest;rounded=0;shadow=0;html=0;" vertex="1" parent="i3LlxhzEXIOrOoSJDD8H-63">
          <mxGeometry y="372" width="420" height="26" as="geometry" />
        </mxCell>
        <mxCell id="i3LlxhzEXIOrOoSJDD8H-91" value="+ presentMenuChoixJoueur(String title) : Player" style="text;align=left;verticalAlign=top;spacingLeft=4;spacingRight=4;overflow=hidden;rotatable=0;points=[[0,0.5],[1,0.5]];portConstraint=eastwest;rounded=0;shadow=0;html=0;" vertex="1" parent="i3LlxhzEXIOrOoSJDD8H-63">
          <mxGeometry y="398" width="420" height="26" as="geometry" />
        </mxCell>
        <mxCell id="i3LlxhzEXIOrOoSJDD8H-88" value="+ presentMenuChoixRival(String title) : Player" style="text;align=left;verticalAlign=top;spacingLeft=4;spacingRight=4;overflow=hidden;rotatable=0;points=[[0,0.5],[1,0.5]];portConstraint=eastwest;rounded=0;shadow=0;html=0;" vertex="1" parent="i3LlxhzEXIOrOoSJDD8H-63">
          <mxGeometry y="424" width="420" height="26" as="geometry" />
        </mxCell>
        <mxCell id="i3LlxhzEXIOrOoSJDD8H-92" value="+ presentMenuChoixCarte(String title, Deck cardDeck) : Card" style="text;align=left;verticalAlign=top;spacingLeft=4;spacingRight=4;overflow=hidden;rotatable=0;points=[[0,0.5],[1,0.5]];portConstraint=eastwest;rounded=0;shadow=0;html=0;" vertex="1" parent="i3LlxhzEXIOrOoSJDD8H-63">
          <mxGeometry y="450" width="420" height="26" as="geometry" />
        </mxCell>
        <mxCell id="i3LlxhzEXIOrOoSJDD8H-93" value="+ presentMenuRegarderPaquet(String title, Deck cardDeck) : void" style="text;align=left;verticalAlign=top;spacingLeft=4;spacingRight=4;overflow=hidden;rotatable=0;points=[[0,0.5],[1,0.5]];portConstraint=eastwest;rounded=0;shadow=0;html=0;" vertex="1" parent="i3LlxhzEXIOrOoSJDD8H-63">
          <mxGeometry y="476" width="420" height="26" as="geometry" />
        </mxCell>
        <mxCell id="i3LlxhzEXIOrOoSJDD8H-90" value="+ presentGameStateString(String gameStateString) : void" style="text;align=left;verticalAlign=top;spacingLeft=4;spacingRight=4;overflow=hidden;rotatable=0;points=[[0,0.5],[1,0.5]];portConstraint=eastwest;rounded=0;shadow=0;html=0;" vertex="1" parent="i3LlxhzEXIOrOoSJDD8H-63">
          <mxGeometry y="502" width="420" height="26" as="geometry" />
        </mxCell>
        <mxCell id="i3LlxhzEXIOrOoSJDD8H-73" value="&lt;i&gt;View&lt;/i&gt;" style="html=1;whiteSpace=wrap;" vertex="1" parent="WIyWlLk6GJQsqaUBKTNV-1">
          <mxGeometry x="490" y="40" width="110" height="50" as="geometry" />
        </mxCell>
        <mxCell id="i3LlxhzEXIOrOoSJDD8H-74" value="" style="endArrow=open;shadow=0;strokeWidth=1;rounded=0;endFill=1;edgeStyle=elbowEdgeStyle;elbow=vertical;exitX=0;exitY=0.5;exitDx=0;exitDy=0;entryX=1;entryY=0;entryDx=0;entryDy=0;" edge="1" parent="WIyWlLk6GJQsqaUBKTNV-1" source="i3LlxhzEXIOrOoSJDD8H-64" target="i3LlxhzEXIOrOoSJDD8H-73">
          <mxGeometry x="0.5" y="41" relative="1" as="geometry">
            <mxPoint x="450" y="180" as="sourcePoint" />
            <mxPoint x="590" y="180" as="targetPoint" />
            <mxPoint x="-40" y="32" as="offset" />
          </mxGeometry>
        </mxCell>
        <mxCell id="i3LlxhzEXIOrOoSJDD8H-75" value="1" style="resizable=0;align=left;verticalAlign=bottom;labelBackgroundColor=none;fontSize=12;" connectable="0" vertex="1" parent="i3LlxhzEXIOrOoSJDD8H-74">
          <mxGeometry x="-1" relative="1" as="geometry">
            <mxPoint x="-20" y="1" as="offset" />
          </mxGeometry>
        </mxCell>
        <mxCell id="i3LlxhzEXIOrOoSJDD8H-76" value="*" style="resizable=0;align=right;verticalAlign=bottom;labelBackgroundColor=none;fontSize=12;" connectable="0" vertex="1" parent="i3LlxhzEXIOrOoSJDD8H-74">
          <mxGeometry x="1" relative="1" as="geometry">
            <mxPoint x="20" as="offset" />
          </mxGeometry>
        </mxCell>
        <mxCell id="i3LlxhzEXIOrOoSJDD8H-77" value="order" style="text;html=1;resizable=0;points=[];;align=center;verticalAlign=middle;labelBackgroundColor=none;rounded=0;shadow=0;strokeWidth=1;fontSize=12;" vertex="1" connectable="0" parent="i3LlxhzEXIOrOoSJDD8H-74">
          <mxGeometry x="0.5" y="49" relative="1" as="geometry">
            <mxPoint x="38" y="-58" as="offset" />
          </mxGeometry>
        </mxCell>
        <mxCell id="i3LlxhzEXIOrOoSJDD8H-79" value="Send choices" style="endArrow=open;endSize=12;dashed=1;html=1;rounded=0;exitX=1;exitY=1;exitDx=0;exitDy=0;entryX=0;entryY=0.5;entryDx=0;entryDy=0;" edge="1" parent="WIyWlLk6GJQsqaUBKTNV-1" source="i3LlxhzEXIOrOoSJDD8H-73" target="i3LlxhzEXIOrOoSJDD8H-66">
          <mxGeometry width="160" relative="1" as="geometry">
            <mxPoint x="580" y="120.67000000000002" as="sourcePoint" />
            <mxPoint x="740" y="120.67000000000002" as="targetPoint" />
          </mxGeometry>
        </mxCell>
        <mxCell id="i3LlxhzEXIOrOoSJDD8H-87" value="penser à utilsier TourNormal Infos comme classe d&#39;association avec la GameLogic" style="text;html=1;align=center;verticalAlign=middle;resizable=0;points=[];autosize=1;strokeColor=none;fillColor=none;" vertex="1" parent="WIyWlLk6GJQsqaUBKTNV-1">
          <mxGeometry x="710" y="540" width="460" height="30" as="geometry" />
        </mxCell>
        <mxCell id="i3LlxhzEXIOrOoSJDD8H-96" value="GameLogic" style="swimlane;fontStyle=0;align=center;verticalAlign=top;childLayout=stackLayout;horizontal=1;startSize=26;horizontalStack=0;resizeParent=1;resizeLast=0;collapsible=1;marginBottom=0;rounded=0;shadow=0;strokeWidth=1;" vertex="1" parent="WIyWlLk6GJQsqaUBKTNV-1">
          <mxGeometry x="-450" y="180" width="830" height="530" as="geometry">
            <mxRectangle x="860" y="770" width="160" height="26" as="alternateBounds" />
          </mxGeometry>
        </mxCell>
        <mxCell id="i3LlxhzEXIOrOoSJDD8H-97" value="- defaultTempoTime : int" style="text;align=left;verticalAlign=top;spacingLeft=4;spacingRight=4;overflow=hidden;rotatable=0;points=[[0,0.5],[1,0.5]];portConstraint=eastwest;fontStyle=4" vertex="1" parent="i3LlxhzEXIOrOoSJDD8H-96">
          <mxGeometry y="26" width="830" height="26" as="geometry" />
        </mxCell>
        <mxCell id="i3LlxhzEXIOrOoSJDD8H-102" value="" style="line;html=1;strokeWidth=1;align=left;verticalAlign=middle;spacingTop=-1;spacingLeft=3;spacingRight=3;rotatable=0;labelPosition=right;points=[];portConstraint=eastwest;" vertex="1" parent="i3LlxhzEXIOrOoSJDD8H-96">
          <mxGeometry y="52" width="830" height="8" as="geometry" />
        </mxCell>
        <mxCell id="i3LlxhzEXIOrOoSJDD8H-117" value="+ tempo(int millis): void" style="text;align=left;verticalAlign=top;spacingLeft=4;spacingRight=4;overflow=hidden;rotatable=0;points=[[0,0.5],[1,0.5]];portConstraint=eastwest;fontStyle=4" vertex="1" parent="i3LlxhzEXIOrOoSJDD8H-96">
          <mxGeometry y="60" width="830" height="26" as="geometry" />
        </mxCell>
        <mxCell id="i3LlxhzEXIOrOoSJDD8H-118" value="+ tempo(): void" style="text;align=left;verticalAlign=top;spacingLeft=4;spacingRight=4;overflow=hidden;rotatable=0;points=[[0,0.5],[1,0.5]];portConstraint=eastwest;fontStyle=4" vertex="1" parent="i3LlxhzEXIOrOoSJDD8H-96">
          <mxGeometry y="86" width="830" height="26" as="geometry" />
        </mxCell>
        <mxCell id="i3LlxhzEXIOrOoSJDD8H-119" value="+ initPartie(int nbPlayers, String[] playerNames, boolean[] isIA, String[] StrategyNames, boolean skipDistribution, String startingDeckFile) : void" style="text;align=left;verticalAlign=top;spacingLeft=4;spacingRight=4;overflow=hidden;rotatable=0;points=[[0,0.5],[1,0.5]];portConstraint=eastwest;fontStyle=4" vertex="1" parent="i3LlxhzEXIOrOoSJDD8H-96">
          <mxGeometry y="112" width="830" height="26" as="geometry" />
        </mxCell>
        <mxCell id="i3LlxhzEXIOrOoSJDD8H-121" value="+ play() : boolean" style="text;align=left;verticalAlign=top;spacingLeft=4;spacingRight=4;overflow=hidden;rotatable=0;points=[[0,0.5],[1,0.5]];portConstraint=eastwest;fontStyle=4" vertex="1" parent="i3LlxhzEXIOrOoSJDD8H-96">
          <mxGeometry y="138" width="830" height="26" as="geometry" />
        </mxCell>
        <mxCell id="i3LlxhzEXIOrOoSJDD8H-122" value="- distributionCartes() : void" style="text;align=left;verticalAlign=top;spacingLeft=4;spacingRight=4;overflow=hidden;rotatable=0;points=[[0,0.5],[1,0.5]];portConstraint=eastwest;fontStyle=4" vertex="1" parent="i3LlxhzEXIOrOoSJDD8H-96">
          <mxGeometry y="164" width="830" height="26" as="geometry" />
        </mxCell>
        <mxCell id="i3LlxhzEXIOrOoSJDD8H-123" value="- applyKarmicCost(Card playedCard) : void" style="text;align=left;verticalAlign=top;spacingLeft=4;spacingRight=4;overflow=hidden;rotatable=0;points=[[0,0.5],[1,0.5]];portConstraint=eastwest;fontStyle=4" vertex="1" parent="i3LlxhzEXIOrOoSJDD8H-96">
          <mxGeometry y="190" width="830" height="26" as="geometry" />
        </mxCell>
      </root>
    </mxGraphModel>
  </diagram>
</mxfile>
